# xmcd
#
# Track frame offsets: 
#        150
#        15416
#        36600
#        63780
#        80181
#        103794
#        121342
#
# Disc length: 2057 seconds
#
# Revision: 2
# Processed by: cddbd v1.5.2PL0 Copyright (c) Steve Scherf et al.
# Submitted via: ExactAudioCopy v1.1
#
DISCID=58080707
DTITLE=Cuby and Blizzards - Too Blind To See
DYEAR=1970
DGENRE=Blues
TTITLE0=Thursday Night
TTITLE1=Night Train
TTITLE2=Evil Woman
TTITLE3=Wee Wee Baby
TTITLE4=Too Blind To See
TTITLE5=Birks' Works
TTITLE6=Time Passed Me By
EXTD=
EXTT0=
EXTT1=
EXTT2=
EXTT3=
EXTT4=
EXTT5=
EXTT6=
PLAYORDER=
